<svg width="160" height="160" viewBox="0 0 160 160" fill="none" xmlns="http://www.w3.org/2000/svg">
<ellipse cx="80" cy="82.4242" rx="80" ry="77.5758" fill="#111111"/>
<path d="M94.5 123.406C91.25 125.802 89.0521 127 87.9062 127C86.7188 127 85.7812 126.333 85.0938 125C84.5104 123.833 84.2188 122.542 84.2188 121.125C84.2188 119.688 84.4271 118.323 84.8438 117.031C85.2812 115.719 85.8438 114.542 86.5312 113.5C88.0938 111.146 89.75 109.969 91.5 109.969C92.1458 109.969 93.1875 110.365 94.625 111.156C96.0833 111.927 97.1771 112.5 97.9062 112.875C104.781 108.771 108.583 105.469 109.312 102.969C108.833 102.844 108.229 102.781 107.5 102.781C106.792 102.781 106.083 102.802 105.375 102.844C104.688 102.885 103.885 102.958 102.969 103.062C102.073 103.167 101.167 103.292 100.25 103.438C98.2708 103.792 96.6354 104.167 95.3438 104.562C95.0312 104.104 94.875 103.479 94.875 102.688C94.875 101.188 95.1562 100.365 95.7188 100.219C98.5521 99.5312 101.229 99.1875 103.75 99.1875C109.479 99.1875 112.573 99.6458 113.031 100.562C113.302 101.125 113.438 101.823 113.438 102.656C113.438 105.156 110.177 109.51 103.656 115.719C105.865 116.635 107.51 117.094 108.594 117.094C109.698 117.094 110.688 116.906 111.562 116.531C112.458 116.135 113.333 115.625 114.188 115C115.875 113.729 117.354 112.146 118.625 110.25C119.188 110.208 119.562 110.312 119.75 110.562C119.938 110.812 120.031 111.083 120.031 111.375C120.031 111.667 119.896 112.146 119.625 112.812C119.354 113.479 118.917 114.323 118.312 115.344C117.729 116.344 117.031 117.375 116.219 118.438C115.406 119.5 114.5 120.542 113.5 121.562C112.5 122.583 111.427 123.5 110.281 124.312C107.781 126.104 105.25 127 102.688 127C100.146 127 97.4167 125.802 94.5 123.406ZM120.375 128.938C119.688 128.438 119.208 127.938 118.938 127.438C118.667 126.958 118.531 126.354 118.531 125.625C118.531 124.896 118.781 124.125 119.281 123.312C119.781 122.5 120.448 121.771 121.281 121.125C123.177 119.688 125.156 118.969 127.219 118.969C129.281 118.969 130.781 119.396 131.719 120.25C132.677 121.104 133.156 122.219 133.156 123.594C133.156 125.156 131.969 126.594 129.594 127.906C127.406 129.115 125.344 129.719 123.406 129.719C122.094 129.719 121.083 129.458 120.375 128.938Z" fill="#C6005F"/>
<path d="M52.875 116.062C39.5833 116.062 32.9375 110.417 32.9375 99.125C32.9375 91.25 38.1667 80.3333 48.625 66.375C47.5833 66.0417 46.625 65.75 45.75 65.5C44.875 65.25 44.1667 65.0417 43.625 64.875C43.0833 64.6667 42.75 64.3542 42.625 63.9375C42.5 63.5208 42.4583 63.0417 42.5 62.5C42.6667 61.25 42.9583 60.25 43.375 59.5L52.8125 61.0625C60.1875 52.1042 66.5417 45.9583 71.875 42.625C73.5 41.625 74.6458 41.125 75.3125 41.125C75.9792 41.125 76.5625 41.2292 77.0625 41.4375C77.6042 41.6042 78.1458 41.8333 78.6875 42.125C79.8542 42.75 80.7708 43.4792 81.4375 44.3125C75.8125 49.8125 70.5417 56.125 65.625 63.25C75.1667 64.9167 81 65.8125 83.125 65.9375C82 70.3958 80.7083 72.625 79.25 72.625C75.6667 72.625 69.7708 71.6458 61.5625 69.6875C57.4375 76.5625 55.375 82.2708 55.375 86.8125C55.375 93.0625 59.5833 96.1875 68 96.1875C77.4167 96.1875 85.1667 91.625 91.25 82.5C93.125 82.375 94.0625 83.1458 94.0625 84.8125C94.0625 86.2708 93.1875 88.4583 91.4375 91.375C89.6875 94.25 87.9375 96.75 86.1875 98.875C84.4375 101 82.4167 103.104 80.125 105.188C77.8333 107.229 75.2917 109.062 72.5 110.688C66.4167 114.271 59.875 116.062 52.875 116.062Z" fill="white"/>
</svg>
