<svg width="160" height="160" viewBox="0 0 160 160" fill="none" xmlns="http://www.w3.org/2000/svg">
<ellipse cx="80" cy="82.4242" rx="80" ry="77.5758" fill="#ECECEC" fill-opacity="0.93"/>
<path d="M91 125.406C87.75 127.802 85.5521 129 84.4062 129C83.2188 129 82.2812 128.333 81.5938 127C81.0104 125.833 80.7188 124.542 80.7188 123.125C80.7188 121.688 80.9271 120.323 81.3438 119.031C81.7812 117.719 82.3438 116.542 83.0312 115.5C84.5938 113.146 86.25 111.969 88 111.969C88.6458 111.969 89.6875 112.365 91.125 113.156C92.5833 113.927 93.6771 114.5 94.4062 114.875C101.281 110.771 105.083 107.469 105.812 104.969C105.333 104.844 104.729 104.781 104 104.781C103.292 104.781 102.583 104.802 101.875 104.844C101.188 104.885 100.385 104.958 99.4688 105.062C98.5729 105.167 97.6667 105.292 96.75 105.438C94.7708 105.792 93.1354 106.167 91.8438 106.562C91.5312 106.104 91.375 105.479 91.375 104.688C91.375 103.188 91.6562 102.365 92.2188 102.219C95.0521 101.531 97.7292 101.188 100.25 101.188C105.979 101.188 109.073 101.646 109.531 102.562C109.802 103.125 109.938 103.823 109.938 104.656C109.938 107.156 106.677 111.51 100.156 117.719C102.365 118.635 104.01 119.094 105.094 119.094C106.198 119.094 107.188 118.906 108.062 118.531C108.958 118.135 109.833 117.625 110.688 117C112.375 115.729 113.854 114.146 115.125 112.25C115.688 112.208 116.062 112.312 116.25 112.562C116.438 112.812 116.531 113.083 116.531 113.375C116.531 113.667 116.396 114.146 116.125 114.812C115.854 115.479 115.417 116.323 114.812 117.344C114.229 118.344 113.531 119.375 112.719 120.438C111.906 121.5 111 122.542 110 123.562C109 124.583 107.927 125.5 106.781 126.312C104.281 128.104 101.75 129 99.1875 129C96.6458 129 93.9167 127.802 91 125.406ZM116.875 130.938C116.188 130.438 115.708 129.938 115.438 129.438C115.167 128.958 115.031 128.354 115.031 127.625C115.031 126.896 115.281 126.125 115.781 125.312C116.281 124.5 116.948 123.771 117.781 123.125C119.677 121.688 121.656 120.969 123.719 120.969C125.781 120.969 127.281 121.396 128.219 122.25C129.177 123.104 129.656 124.219 129.656 125.594C129.656 127.156 128.469 128.594 126.094 129.906C123.906 131.115 121.844 131.719 119.906 131.719C118.594 131.719 117.583 131.458 116.875 130.938Z" fill="#008AC6"/>
<path d="M52.875 116.062C39.5833 116.062 32.9375 110.417 32.9375 99.125C32.9375 91.25 38.1667 80.3333 48.625 66.375C47.5833 66.0417 46.625 65.75 45.75 65.5C44.875 65.25 44.1667 65.0417 43.625 64.875C43.0833 64.6667 42.75 64.3542 42.625 63.9375C42.5 63.5208 42.4583 63.0417 42.5 62.5C42.6667 61.25 42.9583 60.25 43.375 59.5L52.8125 61.0625C60.1875 52.1042 66.5417 45.9583 71.875 42.625C73.5 41.625 74.6458 41.125 75.3125 41.125C75.9792 41.125 76.5625 41.2292 77.0625 41.4375C77.6042 41.6042 78.1458 41.8333 78.6875 42.125C79.8542 42.75 80.7708 43.4792 81.4375 44.3125C75.8125 49.8125 70.5417 56.125 65.625 63.25C75.1667 64.9167 81 65.8125 83.125 65.9375C82 70.3958 80.7083 72.625 79.25 72.625C75.6667 72.625 69.7708 71.6458 61.5625 69.6875C57.4375 76.5625 55.375 82.2708 55.375 86.8125C55.375 93.0625 59.5833 96.1875 68 96.1875C77.4167 96.1875 85.1667 91.625 91.25 82.5C93.125 82.375 94.0625 83.1458 94.0625 84.8125C94.0625 86.2708 93.1875 88.4583 91.4375 91.375C89.6875 94.25 87.9375 96.75 86.1875 98.875C84.4375 101 82.4167 103.104 80.125 105.188C77.8333 107.229 75.2917 109.062 72.5 110.688C66.4167 114.271 59.875 116.062 52.875 116.062Z" fill="black"/>
</svg>
